<svg xmlns="http://www.w3.org/2000/svg" width="1200" height="720" viewBox="0 0 1200 720">
  <rect width="1200" height="720" fill="#f8fafc"/>
  <rect x="80" y="80" width="480" height="560" rx="28" fill="#ffffff" stroke="#dbe3ea" stroke-width="2"/>
  <text x="100" y="130" fill="#0f172a" font-size="24" font-family="Arial, sans-serif" font-weight="700">Before</text>
  <rect x="100" y="160" width="340" height="140" rx="18" fill="#f8fafc" stroke="#e2e8f0"/>
  <rect x="100" y="320" width="340" height="90" rx="16" fill="#ffffff" stroke="#e2e8f0"/>
  <rect x="100" y="430" width="160" height="40" rx="20" fill="#e2e8f0"/>
  <rect x="280" y="430" width="160" height="40" rx="20" fill="#e2e8f0"/>

  <rect x="640" y="80" width="480" height="560" rx="28" fill="#ffffff" stroke="#dbe3ea" stroke-width="2"/>
  <text x="660" y="130" fill="#0f172a" font-size="24" font-family="Arial, sans-serif" font-weight="700">After</text>
  <rect x="660" y="160" width="340" height="170" rx="22" fill="#f8fafc" stroke="#dbe3ea"/>
  <rect x="660" y="350" width="340" height="108" rx="18" fill="#ffffff" stroke="#e2e8f0"/>
  <rect x="660" y="480" width="170" height="46" rx="23" fill="#e2e8f0"/>
  <rect x="850" y="480" width="150" height="46" rx="23" fill="#e2e8f0"/>
  <text x="660" y="218" fill="#334155" font-size="20" font-family="Arial, sans-serif">Episode title</text>
  <text x="660" y="246" fill="#64748b" font-size="16" font-family="Arial, sans-serif">Longer description with better wrapping</text>
</svg>